<?xml version="1.0" standalone="no"?>
<!DOCTYPE svg PUBLIC "-//W3C//DTD SVG 20010904//EN"
 "http://www.w3.org/TR/2001/REC-SVG-20010904/DTD/svg10.dtd">
<svg version="1.0" xmlns="http://www.w3.org/2000/svg"
 width="118.000000pt" height="47.000000pt" viewBox="0 0 118.000000 47.000000"
 preserveAspectRatio="xMidYMid meet">

<g transform="translate(0.000000,47.000000) scale(0.100000,-0.100000)"
fill="#000000" stroke="none">
<path d="M804 361 c6 -51 4 -59 -11 -63 -35 -9 -43 2 -43 58 l0 54 -37 0 -38
0 0 -140 0 -140 38 0 37 0 0 55 c0 55 0 55 31 55 l31 0 -7 -60 -7 -60 40 0 39
0 -1 150 -1 150 -39 0 -39 0 7 -59z"/>
<path d="M254 328 c8 -96 -1 -94 -34 5 l-22 67 -39 0 -39 0 0 -135 0 -135 39
0 38 0 -5 73 c-5 83 5 82 36 -3 19 -53 21 -55 59 -58 l40 -3 -1 136 -1 135
-39 0 -39 0 7 -82z"/>
<path d="M348 270 l3 -140 37 0 37 0 0 140 0 140 -40 0 -40 0 3 -140z"/>
<path d="M582 335 c2 -41 0 -75 -3 -75 -4 0 -17 32 -29 70 l-23 70 -41 0 -41
0 0 -135 0 -135 40 0 40 0 -3 49 c-7 93 1 102 28 29 l25 -68 40 0 40 0 0 135
0 135 -38 0 -39 0 4 -75z"/>
<path d="M936 388 c-37 -33 -53 -105 -38 -165 16 -63 50 -93 106 -93 72 0 106
44 106 138 0 68 -18 115 -49 132 -35 18 -98 12 -125 -12z m94 -57 c15 -29 12
-104 -4 -127 -30 -40 -73 26 -60 91 11 55 44 73 64 36z"/>
</g>
</svg>
