<?xml version="1.0" standalone="no"?>
<!DOCTYPE svg PUBLIC "-//W3C//DTD SVG 20010904//EN"
 "http://www.w3.org/TR/2001/REC-SVG-20010904/DTD/svg10.dtd">
<svg version="1.0" xmlns="http://www.w3.org/2000/svg"
 width="170.000000pt" height="175.000000pt" viewBox="0 0 170.000000 175.000000"
 preserveAspectRatio="xMidYMid meet">

<g transform="translate(0.000000,175.000000) scale(0.100000,-0.100000)"
fill="#000000" stroke="none">
<path d="M745 1646 c-71 -22 -123 -55 -190 -117 -85 -80 -124 -135 -189 -266
-132 -265 -178 -549 -120 -743 47 -161 176 -316 316 -384 351 -169 762 2 880
364 29 91 36 275 14 390 -22 120 -59 227 -120 355 -80 166 -151 259 -251 330
-106 76 -237 103 -340 71z m162 -187 c150 -56 315 -334 364 -614 18 -107 8
-249 -24 -319 -59 -129 -140 -203 -268 -246 -52 -18 -81 -21 -155 -18 -81 3
-100 8 -167 41 -156 77 -247 230 -247 416 0 201 115 498 247 641 92 99 169
130 250 99z"/>
</g>
</svg>
